<?xml version="1.0" standalone="no"?>
<svg version="1.0" xmlns="http://www.w3.org/2000/svg"
 width="459.000000pt" height="828.000000pt" viewBox="0 0 459.000000 828.000000"
 preserveAspectRatio="xMidYMid meet">

<g transform="translate(0.000000,828.000000) scale(0.100000,-0.100000)"
fill="#fff" stroke="none">
<path d="M2045 8176 c-60 -8 -108 -21 -144 -40 -66 -34 -146 -108 -172 -158
-30 -59 -59 -201 -59 -289 0 -77 -1 -81 -30 -105 -42 -36 -47 -78 -17 -155 13
-35 32 -85 41 -111 10 -28 33 -61 57 -83 27 -24 51 -62 76 -118 19 -45 42 -91
49 -102 18 -26 18 -71 -2 -128 -12 -35 -28 -55 -70 -87 -62 -46 -128 -79 -161
-80 -19 0 -74 -18 -253 -86 -122 -45 -247 -183 -270 -296 -6 -35 -20 -97 -30
-138 -30 -125 -40 -193 -40 -266 0 -160 -34 -361 -90 -541 -42 -131 -56 -163
-105 -234 -42 -62 -77 -148 -119 -299 -50 -176 -80 -262 -127 -360 -64 -130
-69 -136 -139 -148 -34 -7 -90 -27 -128 -48 -37 -20 -99 -54 -138 -75 -88 -48
-106 -67 -102 -110 6 -64 81 -89 183 -61 22 6 41 9 43 8 6 -7 -61 -111 -100
-156 -77 -85 -98 -168 -55 -208 31 -29 40 -28 82 9 19 17 35 29 35 25 0 -3 -9
-28 -20 -56 -27 -67 -26 -105 2 -124 31 -22 52 -20 85 8 l29 25 12 -33 c7 -18
23 -39 37 -46 45 -24 95 29 110 115 9 54 27 105 37 105 4 0 8 -38 8 -85 0 -80
1 -86 25 -101 57 -37 99 23 138 196 13 58 33 123 44 145 38 74 70 161 78 211
10 68 63 167 279 519 267 436 286 473 286 567 0 59 13 118 71 313 16 55 29
109 30 120 l0 20 11 -20 c12 -20 39 -341 38 -450 -1 -75 -15 -157 -45 -260
-42 -146 -67 -265 -75 -360 -4 -52 -10 -98 -13 -103 -3 -4 -13 -67 -22 -138
-22 -181 -29 -436 -14 -579 6 -66 13 -151 15 -190 5 -137 17 -251 30 -303 8
-29 14 -66 14 -82 0 -16 7 -59 16 -97 49 -210 51 -242 36 -458 -9 -137 -16
-173 -53 -303 -11 -37 -24 -131 -30 -225 -14 -195 -9 -263 50 -696 17 -118 21
-188 17 -250 -16 -235 -24 -301 -43 -356 -11 -33 -24 -78 -28 -99 -3 -22 -20
-79 -36 -127 -38 -113 -37 -155 5 -258 38 -93 91 -156 140 -167 17 -3 43 -17
57 -30 31 -30 87 -34 123 -11 27 18 87 119 122 206 20 50 23 79 28 269 4 153
10 230 22 275 19 69 23 211 10 323 -9 70 -5 97 35 297 39 196 44 221 69 339
24 109 24 260 0 399 -12 75 -12 79 17 175 31 100 44 159 68 294 7 41 22 112
34 156 13 51 25 142 31 245 6 90 15 191 20 224 6 33 15 105 20 160 6 55 15
124 20 154 6 30 10 70 10 89 0 19 5 52 12 74 10 35 14 39 42 36 30 -3 30 -4
42 -83 6 -44 16 -96 22 -115 16 -55 59 -417 60 -520 0 -30 15 -184 32 -330 6
-58 22 -139 35 -180 12 -41 30 -111 40 -155 9 -44 21 -92 27 -106 7 -19 5 -42
-6 -80 -23 -84 -28 -173 -17 -315 11 -141 31 -245 69 -354 25 -74 53 -275 47
-345 -16 -208 -17 -261 -5 -333 7 -42 15 -189 19 -327 7 -235 8 -253 30 -295
31 -60 126 -186 146 -194 32 -12 72 -6 90 14 10 11 46 35 79 54 78 44 111 79
138 147 34 88 33 113 -7 229 -56 162 -88 319 -86 425 2 124 10 262 21 375 6
52 13 122 16 155 8 88 21 189 35 285 19 121 17 320 -3 400 -9 36 -22 99 -28
140 -7 41 -18 91 -25 110 -8 19 -16 100 -19 180 -3 80 -11 165 -16 189 -12 48
-10 57 37 246 27 107 46 317 46 490 -1 250 -15 471 -34 547 -10 42 -19 102
-19 134 0 31 -4 73 -9 93 -12 46 -27 122 -46 241 -31 192 -46 263 -89 425 -27
104 -35 234 -17 291 5 16 15 98 22 183 14 178 17 178 69 -14 17 -66 36 -130
41 -143 5 -13 9 -49 9 -80 1 -67 29 -144 80 -216 19 -26 51 -72 70 -101 19
-29 47 -70 62 -91 15 -22 42 -60 60 -86 18 -25 54 -73 80 -106 25 -33 52 -70
58 -83 14 -26 36 -54 131 -164 70 -81 86 -109 98 -168 10 -46 21 -78 61 -182
15 -38 33 -110 40 -160 7 -49 18 -101 25 -115 54 -104 145 -79 133 37 l-5 48
37 -80 c21 -44 53 -94 71 -111 31 -29 39 -32 100 -30 90 1 109 18 109 95 0 39
-8 73 -25 109 -14 30 -25 59 -25 64 0 6 24 -12 54 -41 61 -57 85 -62 121 -26
42 41 30 82 -47 173 -51 60 -113 160 -105 169 4 3 26 0 50 -6 38 -11 49 -10
83 6 51 24 73 66 53 101 -15 28 -19 30 -101 65 -31 14 -80 43 -110 65 -29 22
-78 47 -108 56 -30 9 -65 22 -76 29 -59 33 -148 194 -269 487 -81 196 -120
269 -186 351 -52 63 -60 82 -69 163 -5 39 -17 118 -28 176 -11 58 -26 134 -32
170 -6 36 -18 88 -25 115 -7 28 -20 93 -30 145 -19 107 -57 243 -80 286 -8 16
-15 34 -15 41 0 31 -75 165 -115 206 -60 62 -116 93 -221 122 -169 47 -199 58
-256 87 -32 16 -65 28 -75 26 -19 -5 -73 18 -86 36 -15 21 4 165 28 215 13 26
30 74 39 106 9 36 25 68 41 82 26 25 55 83 55 112 0 9 11 37 25 63 17 33 25
63 25 98 0 63 -12 88 -53 105 l-31 13 -3 105 c-2 99 -5 111 -42 189 -62 133
-154 208 -291 241 -99 24 -147 26 -245 13z m190 -42 c101 -18 195 -63 244
-119 16 -19 46 -68 65 -110 34 -69 37 -83 40 -184 3 -113 8 -131 32 -131 23 0
64 -46 64 -72 0 -13 -9 -40 -19 -59 -11 -20 -29 -68 -41 -106 -15 -51 -29 -76
-50 -91 -20 -15 -30 -33 -35 -64 -4 -24 -22 -75 -39 -113 -36 -77 -54 -212
-36 -260 12 -31 66 -65 103 -65 15 0 58 -15 95 -34 37 -18 99 -41 137 -50 176
-41 235 -68 303 -134 45 -45 105 -150 123 -217 4 -16 19 -59 32 -95 14 -36 35
-115 46 -175 12 -61 28 -139 36 -175 8 -36 24 -114 35 -175 12 -60 27 -139 36
-175 8 -36 14 -81 14 -101 0 -58 29 -138 65 -178 65 -72 181 -299 236 -464 34
-100 136 -289 190 -349 43 -49 60 -60 115 -78 75 -23 97 -34 144 -71 19 -16
65 -42 102 -58 36 -17 69 -35 73 -41 3 -5 -6 -22 -20 -36 -21 -21 -32 -25 -53
-19 -86 23 -132 4 -119 -47 8 -29 65 -116 111 -168 17 -19 40 -52 50 -72 17
-30 18 -39 7 -52 -20 -24 -29 -20 -87 40 -44 45 -59 55 -81 52 -39 -4 -41 -36
-5 -112 38 -81 45 -115 29 -145 -10 -20 -20 -23 -67 -25 -66 -2 -89 17 -127
104 -37 85 -47 102 -65 113 -29 19 -48 -9 -48 -68 0 -57 -7 -85 -21 -85 -19 0
-50 86 -64 176 -8 53 -26 120 -40 151 -14 30 -25 63 -25 72 0 9 -7 30 -16 46
-8 17 -19 51 -24 77 -7 36 -24 66 -72 124 -80 98 -148 187 -148 194 0 4 -31
44 -70 91 -38 46 -70 88 -70 93 0 6 -8 19 -19 30 -33 37 -212 307 -228 344 -8
20 -21 80 -29 134 -7 54 -20 121 -29 150 -19 65 -44 151 -58 198 -28 101 -39
121 -61 118 -20 -3 -22 -12 -33 -133 -6 -71 -16 -173 -22 -225 -23 -193 -24
-271 -6 -335 35 -128 68 -282 106 -495 12 -69 30 -164 40 -212 11 -48 19 -110
19 -137 0 -27 6 -79 14 -117 18 -87 37 -490 30 -649 -7 -166 -24 -273 -67
-419 -13 -45 -15 -184 -5 -301 4 -44 10 -118 13 -165 3 -47 12 -107 20 -135 8
-27 18 -75 24 -105 6 -30 15 -82 22 -115 21 -106 27 -198 18 -265 -61 -444
-107 -989 -88 -1048 13 -43 39 -159 39 -179 0 -10 15 -57 34 -105 46 -117 52
-160 31 -212 -37 -91 -52 -111 -113 -146 -34 -20 -72 -46 -85 -58 -28 -26 -62
-28 -81 -4 -124 151 -134 182 -140 428 -2 109 -10 246 -17 304 -7 58 -11 139
-9 180 13 284 2 421 -45 580 -28 96 -55 241 -65 345 -8 86 -6 114 12 200 12
55 21 114 21 130 0 36 -35 183 -64 275 -25 78 -56 293 -70 485 -12 173 -35
381 -54 500 -8 50 -21 127 -28 172 -8 51 -20 90 -31 102 -25 27 -86 28 -110 2
-16 -18 -38 -146 -66 -391 -5 -41 -13 -104 -19 -140 -5 -36 -12 -108 -15 -160
-11 -181 -18 -235 -47 -349 -16 -62 -29 -125 -29 -138 0 -14 -4 -42 -9 -62 -5
-20 -15 -61 -21 -91 -6 -30 -23 -90 -37 -134 l-25 -78 16 -107 c23 -153 21
-257 -10 -402 -15 -68 -30 -142 -34 -164 -60 -307 -69 -384 -58 -485 11 -99 6
-196 -16 -295 -10 -44 -18 -145 -21 -269 -7 -218 -11 -238 -79 -360 -36 -64
-67 -96 -93 -96 -7 0 -23 11 -35 25 -12 14 -38 30 -58 35 -50 13 -93 63 -129
149 -36 85 -39 140 -13 203 11 24 27 77 37 118 9 41 26 101 36 132 11 33 19
86 19 125 0 38 5 84 11 103 14 44 14 302 1 355 -6 22 -13 75 -16 119 -4 43
-11 97 -16 120 -12 52 -32 273 -30 346 3 168 22 334 42 374 5 10 11 32 13 50
2 17 10 56 18 86 8 30 15 96 15 145 1 50 7 112 13 138 9 37 8 64 -1 110 -6 34
-16 82 -20 107 -5 25 -16 79 -25 120 -8 41 -15 86 -15 100 0 14 -6 57 -15 95
-25 119 -55 521 -55 730 0 140 3 176 41 440 41 285 57 368 97 498 28 90 53
272 44 317 -2 8 -10 96 -18 195 -29 351 -25 330 -56 333 -22 3 -28 -1 -28 -16
0 -24 -43 -191 -65 -251 -24 -65 -45 -174 -54 -271 -10 -104 -44 -184 -159
-369 -314 -504 -391 -640 -412 -731 -16 -72 -26 -98 -70 -200 -21 -47 -47
-127 -59 -178 -12 -52 -31 -112 -42 -134 -17 -34 -22 -38 -36 -27 -12 10 -14
29 -11 86 5 77 -7 103 -45 103 -20 0 -57 -47 -57 -74 0 -11 -8 -48 -18 -81
-14 -46 -23 -61 -39 -63 -25 -4 -45 41 -32 76 20 54 -38 76 -61 23 -18 -44
-57 -78 -72 -63 -12 12 -1 53 54 190 12 30 11 35 -6 47 -25 19 -44 8 -87 -49
-36 -49 -62 -55 -67 -18 -4 27 35 96 73 132 34 32 105 152 105 178 0 40 -25
47 -100 28 -59 -16 -72 -16 -97 -4 -15 7 -29 23 -31 35 -3 18 12 29 85 69 185
99 221 116 264 121 60 8 91 39 146 148 45 88 126 319 163 463 25 94 49 148
105 232 32 48 55 100 76 172 17 57 36 112 41 122 23 42 54 264 68 476 6 92 20
184 44 290 32 143 39 160 83 223 68 98 127 136 304 197 81 27 155 50 166 50
29 0 141 71 183 116 60 65 78 167 41 228 -10 17 -36 71 -56 119 -28 65 -45 92
-65 102 -25 13 -70 85 -70 112 0 6 -11 36 -25 67 -33 74 -32 86 10 126 l35 34
0 95 c0 267 111 413 339 446 47 7 88 13 91 14 3 0 45 -6 95 -15z"/>
</g>
</svg>
